<svg xmlns="http://www.w3.org/2000/svg" viewBox="0 0 64 64">
  <defs>
    <linearGradient id="g" x1="0" y1="0" x2="64" y2="64" gradientUnits="userSpaceOnUse">
      <stop offset="0" stop-color="#0E5C4F"/>
      <stop offset="1" stop-color="#08332C"/>
    </linearGradient>
  </defs>
  <rect width="64" height="64" rx="15" fill="url(#g)"/>
  <path d="M25.4 13.6a2.6 2.6 0 0 1 2.6-2.6h8a2.6 2.6 0 0 1 2.6 2.6v8.8a2 2 0 0 0 2 2h8.8a2.6 2.6 0 0 1 2.6 2.6v8a2.6 2.6 0 0 1-2.6 2.6h-8.8a2 2 0 0 0-2 2v8.8a2.6 2.6 0 0 1-2.6 2.6h-8a2.6 2.6 0 0 1-2.6-2.6v-8.8a2 2 0 0 0-2-2h-8.8a2.6 2.6 0 0 1-2.6-2.6v-8a2.6 2.6 0 0 1 2.6-2.6h8.8a2 2 0 0 0 2-2v-8.8Z" fill="#fff"/>
  <path d="M14.5 33.4h8l3.6-6.6 6.6 12.6 3.8-6h12.5" stroke="#0E5C4F" stroke-width="3.6" stroke-linecap="round" stroke-linejoin="round" fill="none"/>
</svg>
